<?xml version="1.0" encoding="utf-8"?>
<!-- Generator: Adobe Illustrator 19.0.0, SVG Export Plug-In . SVG Version: 6.00 Build 0)  -->
<svg version="1.1" id="Layer_1" xmlns="http://www.w3.org/2000/svg" xmlns:xlink="http://www.w3.org/1999/xlink" x="0px" y="0px"
	 viewBox="0 0 453.8 58.4" style="enable-background:new 0 0 453.8 58.4;" xml:space="preserve">
<style type="text/css">
	.st0{fill:#FFFFFF;}
	.st1{fill:#F19025;}
	.st2{fill:#F19026;}
	.st3{fill:#F19127;}
	.st4{fill:#F19128;}
</style>
<g id="XMLID_8_">
	<g id="XMLID_185_">
		<path id="XMLID_208_" class="st0" d="M132.2,29.2c0,6.7-1.5,11.8-4.6,15.5c-3.1,3.7-7.4,5.5-13.1,5.5c-5.7,0-10.1-1.8-13.2-5.5
			c-3.1-3.7-4.6-8.9-4.6-15.6c0-6.8,1.5-11.9,4.6-15.6s7.5-5.4,13.2-5.4c5.6,0,10,1.8,13.1,5.5C130.6,17.3,132.2,22.5,132.2,29.2z
			 M103.2,29.2c0,5,0.9,8.9,2.8,11.5c1.9,2.6,4.7,3.9,8.4,3.9c3.7,0,6.5-1.3,8.3-3.9c1.9-2.6,2.8-6.4,2.8-11.5c0-5-0.9-8.8-2.8-11.4
			c-1.9-2.6-4.6-3.9-8.3-3.9c-3.7,0-6.5,1.3-8.4,3.9C104.2,20.4,103.2,24.2,103.2,29.2z"/>
		<path id="XMLID_206_" class="st0" d="M160.1,8.8h6.4l-13.3,40.9h-6.5L133.5,8.8h6.4l7.9,25.5c0.4,1.2,0.9,2.8,1.3,4.7
			s0.8,3.3,0.9,4.3c0.2-1.4,0.6-3.1,1-4.9s0.8-3.2,1.1-4.1L160.1,8.8z"/>
		<path id="XMLID_204_" class="st0" d="M192.5,49.7h-21.4V8.8h21.4v5.7h-15.2v11.1h14.3v5.6h-14.3v12.9h15.2V49.7z"/>
		<path id="XMLID_201_" class="st0" d="M205.5,33.4v16.4h-6.2V8.8H210c4.9,0,8.5,1,10.9,3c2.3,2,3.5,5,3.5,9c0,5.1-2.5,8.7-7.4,10.9
			l10.7,18.1h-7l-9.1-16.4H205.5z M205.5,27.8h4.3c2.9,0,5-0.6,6.3-1.7c1.3-1.2,1.9-2.9,1.9-5.2c0-2.3-0.7-4-2.1-5
			c-1.4-1-3.5-1.5-6.3-1.5h-4.1V27.8z"/>
		<path id="XMLID_199_" class="st0" d="M267.1,49.7h-6.7L254,25.3c-0.3-1.1-0.6-2.6-1-4.6c-0.4-2-0.7-3.4-0.8-4.2
			c-0.2,1.2-0.5,2.7-0.8,4.6s-0.7,3.3-1,4.3l-6.3,24.3h-6.7l-4.9-20.5l-5-20.4h6.3l5.4,23.9c0.8,3.8,1.5,7.2,1.8,10.1
			c0.2-1.6,0.5-3.4,0.9-5.3c0.4-2,0.7-3.5,1-4.8l6.2-23.9h6.1l6.3,24c0.6,2.2,1.2,5.5,1.9,10c0.3-2.7,0.9-6.1,1.9-10.2l5.4-23.8h6.3
			L267.1,49.7z"/>
		<path id="XMLID_196_" class="st0" d="M303.7,49.7l-3.8-11.4h-14.5l-3.7,11.4h-6.5l14.2-41.1h6.7l14.2,41.1H303.7z M298.3,32.6
			l-3.5-11.1c-0.3-0.7-0.6-1.9-1.1-3.5c-0.5-1.6-0.8-2.8-0.9-3.5c-0.5,2.3-1.1,4.8-2,7.5l-3.4,10.7H298.3z"/>
		<path id="XMLID_194_" class="st0" d="M324.3,49.7h-6.2V14.5h-11.1V8.8h28.5v5.7h-11.1V49.7z"/>
		<path id="XMLID_192_" class="st0" d="M355.5,13.9c-3.6,0-6.4,1.4-8.4,4.1c-2,2.7-3.1,6.5-3.1,11.3c0,5,1,8.8,2.9,11.4
			c2,2.6,4.8,3.9,8.5,3.9c1.6,0,3.2-0.2,4.7-0.5c1.5-0.3,3.1-0.8,4.7-1.3v5.7c-3,1.2-6.3,1.8-10.1,1.8c-5.5,0-9.8-1.8-12.8-5.4
			c-3-3.6-4.5-8.8-4.5-15.6c0-4.3,0.7-8,2.2-11.2c1.4-3.2,3.5-5.6,6.3-7.3s5.9-2.5,9.6-2.5c3.9,0,7.4,0.9,10.7,2.6l-2.2,5.6
			c-1.3-0.7-2.6-1.2-4.1-1.7C358.6,14.2,357.1,13.9,355.5,13.9z"/>
		<path id="XMLID_190_" class="st0" d="M401.6,49.7h-6.2V31.3h-17.5v18.5h-6.2V8.8h6.2v16.7h17.5V8.8h6.2V49.7z"/>
		<path id="XMLID_188_" class="st1" d="M410.4,49.7V8.8h2.6V47h18.1v2.7H410.4z"/>
		<path id="XMLID_186_" class="st1" d="M441.4,31.2l11.1-22.4h2.8l-12.6,25.1v15.8H440V34.1L427.4,8.8h3L441.4,31.2z"/>
	</g>
</g>
<g id="XMLID_2_">
	<path id="XMLID_7_" class="st0" d="M40.5,12.9C49.7,12.8,57,20.1,57,29.3c0,9-7.6,16.5-16.6,16.4c-8.8-0.1-16-7.4-16.1-16.3
		C24.1,20.2,31.3,12.9,40.5,12.9z"/>
	<path id="XMLID_6_" class="st2" d="M11.5,17.1C18,4.8,27.6,0.3,39.6,0c12.6-0.3,23,3.9,29.4,15.8C64,16,58.8,14.3,55.6,11.8
		c-9.5-7.6-21-7.5-30.4,0.4C21.5,15.3,16.8,14.9,11.5,17.1z"/>
	<path id="XMLID_5_" class="st2" d="M69.3,41.6C63.1,54,53,58.4,40.8,58.4c-12.4,0-22.7-4.4-29-16.8c5.8,1.5,10.9,2.1,15.3,5.9
		c7.3,6.2,18.6,6.5,26,0.6C57.8,44.4,63,43.3,69.3,41.6z"/>
	<path id="XMLID_4_" class="st3" d="M18.6,21.4c-1.6,5.4-1.3,10-0.3,15.1C11.6,35.1,5.9,32.7,0,29.3C5.6,25.3,11.7,23.6,18.6,21.4z"
		/>
	<path id="XMLID_3_" class="st4" d="M62.8,21.7c6.5,1.6,12.3,3.8,18.1,7.4c-5.1,3.6-10.5,5.2-15.8,7c-1.4,0.5-2.7,0.1-2.2-1.6
		C64.3,30.3,63.2,26.2,62.8,21.7z"/>
</g>
</svg>
